<?xml version="1.0" encoding="utf-8"?>
<!-- Generator: Adobe Illustrator 24.0.1, SVG Export Plug-In . SVG Version: 6.00 Build 0)  -->
<svg version="1.1" id="圖層_1" xmlns="http://www.w3.org/2000/svg" xmlns:xlink="http://www.w3.org/1999/xlink" x="0px" y="0px"
	 viewBox="0 0 1030.43 183.02" style="enable-background:new 0 0 1030.43 183.02;" xml:space="preserve">
<style type="text/css">
	.st0{fill:#C41F20;}
</style>
<g>
	<path class="st0" d="M420.5,119.06h-4.1v-2.08h10.58v2.08h-4.1v11.29h-2.38V119.06z"/>
	<path class="st0" d="M428.52,116.98h2.38v5.4h6.25v-5.4h2.38v13.37h-2.38v-5.93h-6.25v5.93h-2.38V116.98z"/>
	<path class="st0" d="M442.48,116.98h8.86v2.08h-6.48v3.4H451v2h-6.14v3.78h6.82v2.12h-9.2V116.98z"/>
	<path class="st0" d="M460.82,119.78c-0.25-0.33-0.61-0.6-1.07-0.82c-0.46-0.22-0.92-0.33-1.39-0.33c-0.28,0-0.55,0.03-0.83,0.1
		c-0.28,0.07-0.53,0.18-0.76,0.32c-0.23,0.15-0.41,0.33-0.56,0.57c-0.15,0.23-0.22,0.51-0.22,0.84c0,0.3,0.06,0.56,0.19,0.77
		c0.13,0.21,0.3,0.4,0.52,0.55c0.22,0.15,0.49,0.28,0.8,0.4c0.31,0.11,0.66,0.23,1.04,0.34c0.43,0.14,0.87,0.3,1.33,0.47
		c0.46,0.18,0.88,0.41,1.27,0.7c0.38,0.29,0.7,0.65,0.94,1.09c0.25,0.44,0.37,0.99,0.37,1.64c0,0.72-0.13,1.34-0.4,1.88
		c-0.26,0.54-0.62,0.98-1.06,1.33c-0.44,0.35-0.96,0.62-1.55,0.79c-0.59,0.18-1.21,0.27-1.87,0.27c-0.87,0-1.72-0.16-2.55-0.48
		c-0.83-0.32-1.51-0.8-2.04-1.43l1.7-1.59c0.33,0.45,0.76,0.81,1.31,1.08c0.55,0.26,1.09,0.4,1.61,0.4c0.28,0,0.56-0.03,0.85-0.1
		c0.29-0.07,0.55-0.19,0.78-0.35c0.23-0.16,0.42-0.37,0.57-0.61c0.14-0.25,0.22-0.55,0.22-0.92c0-0.35-0.08-0.65-0.25-0.88
		c-0.16-0.23-0.38-0.43-0.66-0.6c-0.28-0.17-0.6-0.32-0.98-0.44c-0.38-0.13-0.77-0.26-1.19-0.4c-0.4-0.13-0.81-0.28-1.21-0.45
		c-0.4-0.18-0.76-0.41-1.09-0.7c-0.32-0.29-0.58-0.64-0.78-1.07c-0.2-0.42-0.3-0.95-0.3-1.58c0-0.68,0.14-1.27,0.42-1.76
		c0.28-0.49,0.65-0.9,1.11-1.22c0.46-0.32,0.98-0.56,1.57-0.72c0.59-0.16,1.18-0.24,1.78-0.24c0.68,0,1.37,0.12,2.07,0.36
		c0.7,0.24,1.31,0.6,1.82,1.08L460.82,119.78z"/>
	<path class="st0" d="M464.84,116.98h2.38v13.37h-2.38V116.98z"/>
	<path class="st0" d="M476.99,119.78c-0.25-0.33-0.61-0.6-1.07-0.82s-0.92-0.33-1.39-0.33c-0.28,0-0.55,0.03-0.83,0.1
		c-0.28,0.07-0.53,0.18-0.76,0.32c-0.23,0.15-0.41,0.33-0.56,0.57c-0.15,0.23-0.22,0.51-0.22,0.84c0,0.3,0.06,0.56,0.19,0.77
		c0.13,0.21,0.3,0.4,0.52,0.55c0.22,0.15,0.49,0.28,0.8,0.4c0.31,0.11,0.66,0.23,1.04,0.34c0.43,0.14,0.87,0.3,1.33,0.47
		c0.46,0.18,0.88,0.41,1.27,0.7c0.38,0.29,0.7,0.65,0.94,1.09c0.25,0.44,0.37,0.99,0.37,1.64c0,0.72-0.13,1.34-0.4,1.88
		c-0.26,0.54-0.62,0.98-1.06,1.33c-0.44,0.35-0.96,0.62-1.55,0.79c-0.59,0.18-1.21,0.27-1.87,0.27c-0.87,0-1.72-0.16-2.55-0.48
		c-0.83-0.32-1.51-0.8-2.04-1.43l1.7-1.59c0.33,0.45,0.76,0.81,1.31,1.08c0.55,0.26,1.09,0.4,1.61,0.4c0.28,0,0.56-0.03,0.85-0.1
		c0.29-0.07,0.55-0.19,0.78-0.35c0.23-0.16,0.42-0.37,0.57-0.61c0.14-0.25,0.22-0.55,0.22-0.92c0-0.35-0.08-0.65-0.25-0.88
		c-0.16-0.23-0.38-0.43-0.66-0.6c-0.28-0.17-0.6-0.32-0.98-0.44c-0.38-0.13-0.77-0.26-1.19-0.4c-0.4-0.13-0.81-0.28-1.21-0.45
		c-0.4-0.18-0.76-0.41-1.09-0.7c-0.32-0.29-0.58-0.64-0.78-1.07c-0.2-0.42-0.3-0.95-0.3-1.58c0-0.68,0.14-1.27,0.42-1.76
		c0.28-0.49,0.65-0.9,1.11-1.22c0.46-0.32,0.98-0.56,1.57-0.72c0.59-0.16,1.18-0.24,1.78-0.24c0.68,0,1.37,0.12,2.07,0.36
		c0.7,0.24,1.31,0.6,1.82,1.08L476.99,119.78z"/>
	<path class="st0" d="M485.73,116.98h4.36c0.77,0,1.46,0.07,2.08,0.21c0.62,0.14,1.15,0.37,1.59,0.68c0.44,0.31,0.78,0.72,1.02,1.21
		c0.24,0.49,0.36,1.08,0.36,1.78c0,0.74-0.14,1.37-0.42,1.87c-0.28,0.5-0.65,0.91-1.12,1.22c-0.47,0.31-1.02,0.53-1.65,0.67
		c-0.63,0.14-1.3,0.21-2,0.21h-1.83v5.53h-2.38V116.98z M489.77,122.82c0.39,0,0.76-0.03,1.11-0.09c0.35-0.06,0.67-0.16,0.94-0.3
		c0.28-0.15,0.5-0.34,0.66-0.6c0.16-0.25,0.25-0.58,0.25-0.98c0-0.39-0.08-0.71-0.25-0.95s-0.38-0.44-0.65-0.58
		c-0.27-0.14-0.58-0.23-0.93-0.27c-0.35-0.04-0.7-0.07-1.07-0.07h-1.74v3.83H489.77z"/>
	<path class="st0" d="M497.25,116.98h4.65c0.63,0,1.24,0.07,1.83,0.2c0.59,0.13,1.12,0.35,1.58,0.65c0.46,0.3,0.83,0.7,1.1,1.19
		c0.28,0.49,0.42,1.09,0.42,1.79c0,0.97-0.27,1.76-0.82,2.37c-0.55,0.61-1.29,1.02-2.24,1.24l3.57,5.93h-2.87l-3.1-5.67h-1.74v5.67
		h-2.38V116.98z M501.58,122.74c0.34,0,0.68-0.03,1.02-0.08c0.34-0.05,0.65-0.15,0.92-0.28c0.27-0.14,0.49-0.34,0.67-0.59
		c0.18-0.26,0.26-0.59,0.26-0.99c0-0.36-0.08-0.66-0.25-0.9c-0.16-0.23-0.37-0.42-0.62-0.56c-0.25-0.14-0.54-0.23-0.86-0.28
		c-0.32-0.05-0.63-0.08-0.93-0.08h-2.15v3.76H501.58z"/>
	<path class="st0" d="M508.49,123.63c0-1.07,0.18-2.04,0.54-2.9c0.36-0.86,0.86-1.6,1.49-2.2c0.64-0.6,1.39-1.07,2.27-1.4
		c0.88-0.33,1.83-0.49,2.86-0.49c1.04,0,2.01,0.16,2.89,0.49c0.88,0.33,1.64,0.79,2.29,1.4c0.64,0.6,1.14,1.34,1.5,2.2
		c0.36,0.86,0.54,1.83,0.54,2.9c0,1.05-0.18,2-0.54,2.86c-0.36,0.86-0.86,1.61-1.5,2.23c-0.64,0.62-1.4,1.11-2.29,1.45
		c-0.88,0.35-1.84,0.52-2.89,0.52c-1.03,0-1.99-0.17-2.86-0.52c-0.88-0.35-1.63-0.83-2.27-1.45c-0.64-0.62-1.13-1.37-1.49-2.23
		C508.67,125.63,508.49,124.68,508.49,123.63z M511.08,123.63c0,0.72,0.11,1.38,0.33,1.97s0.54,1.12,0.94,1.56
		c0.41,0.44,0.89,0.78,1.45,1.03c0.56,0.25,1.18,0.37,1.86,0.37c0.68,0,1.3-0.12,1.87-0.37c0.57-0.25,1.05-0.59,1.46-1.03
		c0.41-0.44,0.72-0.96,0.94-1.56c0.22-0.6,0.33-1.26,0.33-1.97c0-0.69-0.11-1.33-0.33-1.93c-0.22-0.59-0.53-1.11-0.94-1.55
		c-0.4-0.44-0.89-0.79-1.45-1.04s-1.2-0.38-1.89-0.38c-0.69,0-1.32,0.13-1.88,0.38c-0.56,0.25-1.04,0.6-1.44,1.04
		c-0.4,0.44-0.71,0.96-0.94,1.55C511.19,122.3,511.08,122.94,511.08,123.63z"/>
	<path class="st0" d="M531.06,126.03c0,0.49-0.05,1.01-0.16,1.55c-0.11,0.54-0.31,1.05-0.59,1.51c-0.29,0.47-0.7,0.85-1.23,1.15
		c-0.53,0.3-1.21,0.45-2.04,0.45c-1.08,0-1.95-0.27-2.6-0.81c-0.65-0.54-1.09-1.25-1.33-2.13l2.19-0.62
		c0.11,0.44,0.32,0.79,0.62,1.05c0.3,0.26,0.66,0.39,1.08,0.39c0.34,0,0.62-0.06,0.84-0.19c0.22-0.13,0.39-0.31,0.51-0.54
		c0.12-0.23,0.2-0.51,0.26-0.83c0.05-0.32,0.08-0.67,0.08-1.05v-8.97h2.38V126.03z"/>
	<path class="st0" d="M533.89,116.98h8.86v2.08h-6.48v3.4h6.14v2h-6.14v3.78h6.82v2.12h-9.2V116.98z"/>
	<path class="st0" d="M555.06,120.12c-0.35-0.48-0.81-0.83-1.38-1.05c-0.57-0.22-1.12-0.33-1.66-0.33c-0.69,0-1.32,0.13-1.89,0.38
		c-0.57,0.25-1.05,0.6-1.46,1.04c-0.41,0.44-0.72,0.96-0.94,1.55c-0.22,0.59-0.33,1.23-0.33,1.93c0,0.73,0.11,1.4,0.32,2
		c0.21,0.6,0.52,1.12,0.92,1.56c0.4,0.43,0.87,0.77,1.43,1.01c0.55,0.24,1.18,0.36,1.87,0.36c0.72,0,1.35-0.14,1.91-0.43
		c0.55-0.28,1-0.66,1.34-1.12l1.91,1.34c-0.59,0.74-1.32,1.32-2.17,1.73c-0.86,0.41-1.86,0.61-3,0.61c-1.05,0-2.01-0.17-2.88-0.52
		c-0.88-0.35-1.63-0.83-2.26-1.45c-0.63-0.62-1.12-1.37-1.47-2.23c-0.35-0.86-0.53-1.82-0.53-2.86c0-1.07,0.19-2.04,0.56-2.9
		c0.37-0.86,0.88-1.6,1.53-2.2c0.65-0.6,1.41-1.07,2.29-1.4c0.88-0.33,1.84-0.49,2.87-0.49c0.43,0,0.87,0.04,1.34,0.12
		c0.47,0.08,0.91,0.21,1.34,0.38c0.43,0.17,0.83,0.38,1.21,0.63c0.38,0.25,0.7,0.55,0.96,0.91L555.06,120.12z"/>
	<path class="st0" d="M561.14,119.06h-4.1v-2.08h10.58v2.08h-4.1v11.29h-2.38V119.06z"/>
	<path class="st0" d="M575.99,119.78c-0.25-0.33-0.61-0.6-1.07-0.82c-0.46-0.22-0.92-0.33-1.39-0.33c-0.28,0-0.55,0.03-0.83,0.1
		c-0.28,0.07-0.53,0.18-0.76,0.32c-0.23,0.15-0.41,0.33-0.56,0.57c-0.15,0.23-0.22,0.51-0.22,0.84c0,0.3,0.06,0.56,0.19,0.77
		c0.13,0.21,0.3,0.4,0.52,0.55c0.22,0.15,0.49,0.28,0.8,0.4c0.31,0.11,0.66,0.23,1.04,0.34c0.43,0.14,0.87,0.3,1.33,0.47
		c0.46,0.18,0.88,0.41,1.27,0.7c0.38,0.29,0.7,0.65,0.94,1.09c0.25,0.44,0.37,0.99,0.37,1.64c0,0.72-0.13,1.34-0.4,1.88
		c-0.26,0.54-0.62,0.98-1.06,1.33c-0.44,0.35-0.96,0.62-1.55,0.79c-0.59,0.18-1.21,0.27-1.87,0.27c-0.87,0-1.72-0.16-2.55-0.48
		c-0.83-0.32-1.51-0.8-2.04-1.43l1.7-1.59c0.33,0.45,0.76,0.81,1.31,1.08c0.55,0.26,1.09,0.4,1.61,0.4c0.28,0,0.56-0.03,0.85-0.1
		c0.29-0.07,0.55-0.19,0.78-0.35c0.23-0.16,0.42-0.37,0.57-0.61c0.14-0.25,0.22-0.55,0.22-0.92c0-0.35-0.08-0.65-0.25-0.88
		c-0.16-0.23-0.38-0.43-0.66-0.6c-0.28-0.17-0.6-0.32-0.98-0.44c-0.38-0.13-0.77-0.26-1.19-0.4c-0.4-0.13-0.81-0.28-1.21-0.45
		c-0.4-0.18-0.76-0.41-1.09-0.7c-0.32-0.29-0.58-0.64-0.78-1.07c-0.2-0.42-0.3-0.95-0.3-1.58c0-0.68,0.14-1.27,0.42-1.76
		c0.28-0.49,0.65-0.9,1.11-1.22c0.46-0.32,0.98-0.56,1.57-0.72c0.59-0.16,1.18-0.24,1.78-0.24c0.68,0,1.37,0.12,2.07,0.36
		c0.7,0.24,1.31,0.6,1.82,1.08L575.99,119.78z"/>
	<path class="st0" d="M579.86,122.65c0-0.4,0.15-0.75,0.44-1.04c0.3-0.29,0.65-0.43,1.07-0.43c0.4,0,0.76,0.14,1.06,0.42
		c0.3,0.28,0.45,0.62,0.45,1.02c0,0.4-0.15,0.75-0.44,1.04c-0.3,0.29-0.65,0.44-1.07,0.44c-0.2,0-0.39-0.04-0.58-0.11
		c-0.18-0.08-0.34-0.18-0.48-0.3c-0.14-0.13-0.25-0.28-0.33-0.45C579.9,123.04,579.86,122.85,579.86,122.65z M579.86,129.03
		c0-0.4,0.15-0.75,0.44-1.04c0.3-0.29,0.65-0.43,1.07-0.43c0.4,0,0.76,0.14,1.06,0.42c0.3,0.28,0.45,0.62,0.45,1.02
		c0,0.4-0.15,0.75-0.44,1.04c-0.3,0.29-0.65,0.44-1.07,0.44c-0.2,0-0.39-0.04-0.58-0.11c-0.18-0.08-0.34-0.18-0.48-0.3
		c-0.14-0.13-0.25-0.28-0.33-0.45S579.86,129.24,579.86,129.03z"/>
	<path class="st0" d="M588.81,116.98h2.61l2.59,9.82h0.04l2.95-9.82h2.46l2.89,9.82h0.04l2.64-9.82h2.53l-3.91,13.37h-2.3
		l-3.14-10.03h-0.04l-3.14,10.03h-2.3L588.81,116.98z"/>
	<path class="st0" d="M608.26,123.63c0-1.07,0.18-2.04,0.54-2.9c0.36-0.86,0.86-1.6,1.49-2.2c0.64-0.6,1.39-1.07,2.27-1.4
		c0.88-0.33,1.83-0.49,2.86-0.49c1.04,0,2.01,0.16,2.89,0.49c0.88,0.33,1.64,0.79,2.29,1.4c0.64,0.6,1.14,1.34,1.5,2.2
		c0.36,0.86,0.54,1.83,0.54,2.9c0,1.05-0.18,2-0.54,2.86c-0.36,0.86-0.86,1.61-1.5,2.23c-0.64,0.62-1.4,1.11-2.29,1.45
		c-0.88,0.35-1.84,0.52-2.89,0.52c-1.03,0-1.99-0.17-2.86-0.52c-0.88-0.35-1.63-0.83-2.27-1.45c-0.64-0.62-1.13-1.37-1.49-2.23
		C608.44,125.63,608.26,124.68,608.26,123.63z M610.85,123.63c0,0.72,0.11,1.38,0.33,1.97c0.22,0.6,0.54,1.12,0.94,1.56
		s0.89,0.78,1.45,1.03c0.56,0.25,1.18,0.37,1.86,0.37s1.3-0.12,1.87-0.37c0.57-0.25,1.05-0.59,1.46-1.03
		c0.41-0.44,0.72-0.96,0.94-1.56c0.22-0.6,0.33-1.26,0.33-1.97c0-0.69-0.11-1.33-0.33-1.93c-0.22-0.59-0.53-1.11-0.94-1.55
		c-0.4-0.44-0.89-0.79-1.45-1.04c-0.57-0.25-1.2-0.38-1.89-0.38c-0.69,0-1.32,0.13-1.88,0.38c-0.56,0.25-1.04,0.6-1.44,1.04
		c-0.4,0.44-0.71,0.96-0.94,1.55C610.96,122.3,610.85,122.94,610.85,123.63z"/>
	<path class="st0" d="M624.94,116.98h4.65c0.63,0,1.24,0.07,1.83,0.2c0.59,0.13,1.12,0.35,1.58,0.65c0.46,0.3,0.83,0.7,1.1,1.19
		c0.28,0.49,0.42,1.09,0.42,1.79c0,0.97-0.27,1.76-0.82,2.37c-0.55,0.61-1.29,1.02-2.24,1.24l3.57,5.93h-2.87l-3.1-5.67h-1.74v5.67
		h-2.38V116.98z M629.27,122.74c0.34,0,0.68-0.03,1.02-0.08c0.34-0.05,0.65-0.15,0.92-0.28c0.27-0.14,0.49-0.34,0.67-0.59
		s0.26-0.59,0.26-0.99c0-0.36-0.08-0.66-0.25-0.9c-0.16-0.23-0.37-0.42-0.62-0.56c-0.25-0.14-0.54-0.23-0.86-0.28
		c-0.32-0.05-0.63-0.08-0.93-0.08h-2.15v3.76H629.27z"/>
	<path class="st0" d="M636.82,116.98h2.38v5.78h0.06l5.59-5.78h3.21l-6.25,6.18l6.67,7.2h-3.34l-5.87-6.71h-0.06v6.71h-2.38V116.98z
		"/>
	<path class="st0" d="M656.65,119.78c-0.25-0.33-0.61-0.6-1.07-0.82c-0.46-0.22-0.92-0.33-1.39-0.33c-0.28,0-0.55,0.03-0.83,0.1
		c-0.28,0.07-0.53,0.18-0.76,0.32c-0.23,0.15-0.41,0.33-0.56,0.57c-0.15,0.23-0.22,0.51-0.22,0.84c0,0.3,0.06,0.56,0.19,0.77
		c0.13,0.21,0.3,0.4,0.52,0.55c0.22,0.15,0.49,0.28,0.8,0.4c0.31,0.11,0.66,0.23,1.04,0.34c0.43,0.14,0.87,0.3,1.33,0.47
		c0.46,0.18,0.88,0.41,1.27,0.7c0.38,0.29,0.7,0.65,0.94,1.09c0.25,0.44,0.37,0.99,0.37,1.64c0,0.72-0.13,1.34-0.4,1.88
		c-0.26,0.54-0.62,0.98-1.06,1.33c-0.44,0.35-0.96,0.62-1.55,0.79c-0.59,0.18-1.21,0.27-1.87,0.27c-0.87,0-1.72-0.16-2.55-0.48
		c-0.83-0.32-1.51-0.8-2.04-1.43l1.7-1.59c0.33,0.45,0.76,0.81,1.31,1.08c0.55,0.26,1.09,0.4,1.61,0.4c0.28,0,0.56-0.03,0.85-0.1
		c0.29-0.07,0.55-0.19,0.78-0.35c0.23-0.16,0.42-0.37,0.57-0.61c0.14-0.25,0.22-0.55,0.22-0.92c0-0.35-0.08-0.65-0.25-0.88
		c-0.16-0.23-0.38-0.43-0.66-0.6c-0.28-0.17-0.6-0.32-0.98-0.44c-0.38-0.13-0.77-0.26-1.19-0.4c-0.4-0.13-0.81-0.28-1.21-0.45
		c-0.4-0.18-0.76-0.41-1.09-0.7c-0.32-0.29-0.58-0.64-0.78-1.07c-0.2-0.42-0.3-0.95-0.3-1.58c0-0.68,0.14-1.27,0.42-1.76
		c0.28-0.49,0.65-0.9,1.11-1.22c0.46-0.32,0.98-0.56,1.57-0.72c0.59-0.16,1.18-0.24,1.78-0.24c0.68,0,1.37,0.12,2.07,0.36
		c0.7,0.24,1.31,0.6,1.82,1.08L656.65,119.78z"/>
	<path class="st0" d="M660.67,116.98h2.38v5.4h6.25v-5.4h2.38v13.37h-2.38v-5.93h-6.25v5.93h-2.38V116.98z"/>
	<path class="st0" d="M673.99,123.63c0-1.07,0.18-2.04,0.54-2.9c0.36-0.86,0.86-1.6,1.49-2.2c0.64-0.6,1.39-1.07,2.27-1.4
		c0.87-0.33,1.83-0.49,2.86-0.49c1.04,0,2.01,0.16,2.89,0.49c0.88,0.33,1.64,0.79,2.29,1.4c0.64,0.6,1.14,1.34,1.5,2.2
		c0.36,0.86,0.54,1.83,0.54,2.9c0,1.05-0.18,2-0.54,2.86c-0.36,0.86-0.86,1.61-1.5,2.23c-0.64,0.62-1.4,1.11-2.29,1.45
		c-0.88,0.35-1.84,0.52-2.89,0.52c-1.03,0-1.99-0.17-2.86-0.52c-0.87-0.35-1.63-0.83-2.27-1.45c-0.64-0.62-1.13-1.37-1.49-2.23
		C674.17,125.63,673.99,124.68,673.99,123.63z M676.58,123.63c0,0.72,0.11,1.38,0.33,1.97c0.22,0.6,0.54,1.12,0.94,1.56
		s0.89,0.78,1.45,1.03c0.56,0.25,1.18,0.37,1.86,0.37s1.3-0.12,1.87-0.37c0.57-0.25,1.05-0.59,1.46-1.03s0.72-0.96,0.94-1.56
		c0.22-0.6,0.33-1.26,0.33-1.97c0-0.69-0.11-1.33-0.33-1.93c-0.22-0.59-0.53-1.11-0.93-1.55c-0.4-0.44-0.89-0.79-1.45-1.04
		c-0.57-0.25-1.2-0.38-1.89-0.38c-0.69,0-1.32,0.13-1.88,0.38s-1.04,0.6-1.45,1.04c-0.4,0.44-0.71,0.96-0.93,1.55
		C676.69,122.3,676.58,122.94,676.58,123.63z"/>
	<path class="st0" d="M690.67,116.98h4.36c0.77,0,1.46,0.07,2.08,0.21c0.62,0.14,1.15,0.37,1.59,0.68c0.44,0.31,0.78,0.72,1.02,1.21
		c0.24,0.49,0.36,1.08,0.36,1.78c0,0.74-0.14,1.37-0.42,1.87c-0.28,0.5-0.65,0.91-1.12,1.22c-0.47,0.31-1.02,0.53-1.65,0.67
		c-0.63,0.14-1.3,0.21-2,0.21h-1.83v5.53h-2.38V116.98z M694.71,122.82c0.39,0,0.76-0.03,1.11-0.09c0.35-0.06,0.67-0.16,0.94-0.3
		c0.28-0.15,0.5-0.34,0.66-0.6c0.16-0.25,0.25-0.58,0.25-0.98c0-0.39-0.08-0.71-0.25-0.95c-0.16-0.25-0.38-0.44-0.65-0.58
		c-0.27-0.14-0.58-0.23-0.92-0.27c-0.35-0.04-0.7-0.07-1.07-0.07h-1.74v3.83H694.71z"/>
	<path class="st0" d="M702.11,131.26l-1.57-0.57l5.89-14.66l1.57,0.6L702.11,131.26z"/>
	<path class="st0" d="M714.25,116.98h8.63v2.08h-6.25v3.66h5.89v2h-5.89v5.63h-2.38V116.98z"/>
	<path class="st0" d="M725.08,116.98h2.38v13.37h-2.38V116.98z"/>
	<path class="st0" d="M730.4,116.98h3.15l6.21,10.01h0.04v-10.01h2.38v13.37h-3.02l-6.35-10.33h-0.04v10.33h-2.38V116.98z"/>
	<path class="st0" d="M749.33,116.98h2.06l5.76,13.37h-2.72l-1.25-3.06h-5.8l-1.21,3.06h-2.66L749.33,116.98z M752.35,125.26
		l-2.06-5.44l-2.1,5.44H752.35z"/>
	<path class="st0" d="M758.47,116.98h2.38v11.26h5.69v2.12h-8.07V116.98z"/>
	<path class="st0" d="M772.39,116.98h4.65c0.63,0,1.24,0.07,1.83,0.2c0.59,0.13,1.12,0.35,1.58,0.65c0.46,0.3,0.83,0.7,1.1,1.19
		c0.28,0.49,0.42,1.09,0.42,1.79c0,0.97-0.27,1.76-0.82,2.37c-0.55,0.61-1.29,1.02-2.24,1.24l3.57,5.93h-2.87l-3.1-5.67h-1.74v5.67
		h-2.38V116.98z M776.71,122.74c0.34,0,0.68-0.03,1.02-0.08c0.34-0.05,0.65-0.15,0.92-0.28c0.27-0.14,0.49-0.34,0.67-0.59
		s0.26-0.59,0.26-0.99c0-0.36-0.08-0.66-0.25-0.9c-0.16-0.23-0.37-0.42-0.62-0.56c-0.25-0.14-0.54-0.23-0.86-0.28
		c-0.32-0.05-0.63-0.08-0.93-0.08h-2.15v3.76H776.71z"/>
	<path class="st0" d="M784.27,116.98h8.86v2.08h-6.48v3.4h6.14v2h-6.14v3.78h6.82v2.12h-9.2V116.98z"/>
	<path class="st0" d="M794.13,116.98h2.66l3.68,10.29h0.08l3.72-10.29h2.57l-5.36,13.37h-2.06L794.13,116.98z"/>
	<path class="st0" d="M808.12,116.98h2.38v13.37h-2.38V116.98z"/>
	<path class="st0" d="M813.45,116.98h8.86v2.08h-6.48v3.4h6.14v2h-6.14v3.78h6.82v2.12h-9.2V116.98z"/>
	<path class="st0" d="M823.61,116.98h2.61l2.59,9.82h0.04l2.95-9.82h2.46l2.89,9.82h0.04l2.64-9.82h2.53l-3.91,13.37h-2.3
		l-3.14-10.03h-0.04l-3.13,10.03h-2.3L823.61,116.98z"/>
	<path class="st0" d="M843.85,131.26l-1.57-0.57l5.89-14.66l1.57,0.6L843.85,131.26z"/>
	<path class="st0" d="M856,116.98h8.86v2.08h-6.48v3.4h6.14v2h-6.14v3.78h6.82v2.12H856V116.98z"/>
	<path class="st0" d="M870.75,123.22l-4.16-6.23h2.87l2.76,4.57l2.72-4.57h2.74l-4.08,6.29l4.8,7.08h-3l-3.27-5.25l-3.13,5.25h-2.87
		L870.75,123.22z"/>
	<path class="st0" d="M879.95,116.98h2.38v5.4h6.25v-5.4h2.38v13.37h-2.38v-5.93h-6.25v5.93h-2.38V116.98z"/>
	<path class="st0" d="M893.9,116.98h2.38v13.37h-2.38V116.98z"/>
	<path class="st0" d="M899.23,116.98h5.21c0.5,0,1,0.06,1.49,0.18c0.49,0.12,0.93,0.31,1.31,0.58c0.38,0.27,0.7,0.62,0.93,1.05
		c0.24,0.43,0.36,0.94,0.36,1.55c0,0.76-0.21,1.38-0.64,1.87c-0.43,0.49-0.99,0.84-1.68,1.06v0.04c0.84,0.11,1.54,0.44,2.08,0.98
		c0.54,0.54,0.81,1.27,0.81,2.17c0,0.73-0.15,1.34-0.43,1.84c-0.29,0.5-0.67,0.9-1.14,1.2c-0.47,0.3-1.01,0.52-1.62,0.65
		c-0.61,0.13-1.23,0.2-1.86,0.2h-4.82V116.98z M901.61,122.42h2.12c0.79,0,1.4-0.16,1.81-0.47c0.42-0.31,0.62-0.76,0.62-1.34
		c0-0.6-0.21-1.03-0.64-1.28s-1.1-0.38-2-0.38h-1.91V122.42z M901.61,128.35h2.13c0.3,0,0.63-0.02,0.98-0.07
		c0.35-0.04,0.68-0.14,0.97-0.27c0.3-0.14,0.54-0.34,0.74-0.6c0.2-0.26,0.29-0.62,0.29-1.06c0-0.7-0.24-1.2-0.72-1.47
		c-0.48-0.28-1.2-0.42-2.17-0.42h-2.23V128.35z"/>
	<path class="st0" d="M911.45,116.98h2.38v13.37h-2.38V116.98z"/>
	<path class="st0" d="M919.48,119.06h-4.1v-2.08h10.58v2.08h-4.1v11.29h-2.38V119.06z"/>
	<path class="st0" d="M927.5,116.98h2.38v13.37h-2.38V116.98z"/>
	<path class="st0" d="M932.19,123.63c0-1.07,0.18-2.04,0.54-2.9c0.36-0.86,0.86-1.6,1.49-2.2c0.64-0.6,1.39-1.07,2.27-1.4
		c0.87-0.33,1.83-0.49,2.86-0.49c1.04,0,2.01,0.16,2.89,0.49c0.88,0.33,1.64,0.79,2.29,1.4c0.64,0.6,1.14,1.34,1.5,2.2
		c0.36,0.86,0.54,1.83,0.54,2.9c0,1.05-0.18,2-0.54,2.86c-0.36,0.86-0.86,1.61-1.5,2.23c-0.64,0.62-1.4,1.11-2.29,1.45
		c-0.88,0.35-1.84,0.52-2.89,0.52c-1.03,0-1.99-0.17-2.86-0.52c-0.87-0.35-1.63-0.83-2.27-1.45c-0.64-0.62-1.13-1.37-1.49-2.23
		C932.37,125.63,932.19,124.68,932.19,123.63z M934.77,123.63c0,0.72,0.11,1.38,0.33,1.97s0.54,1.12,0.94,1.56s0.89,0.78,1.45,1.03
		c0.56,0.25,1.18,0.37,1.86,0.37s1.3-0.12,1.87-0.37c0.57-0.25,1.05-0.59,1.46-1.03c0.41-0.44,0.72-0.96,0.94-1.56
		c0.22-0.6,0.33-1.26,0.33-1.97c0-0.69-0.11-1.33-0.33-1.93c-0.22-0.59-0.53-1.11-0.93-1.55c-0.4-0.44-0.89-0.79-1.45-1.04
		c-0.57-0.25-1.2-0.38-1.89-0.38c-0.69,0-1.32,0.13-1.88,0.38s-1.04,0.6-1.45,1.04c-0.4,0.44-0.71,0.96-0.93,1.55
		C934.88,122.3,934.77,122.94,934.77,123.63z"/>
	<path class="st0" d="M948.86,116.98h3.15l6.21,10.01h0.04v-10.01h2.38v13.37h-3.02l-6.35-10.33h-0.04v10.33h-2.38V116.98z"/>
	<path class="st0" d="M302.15,97.17c0,0.98,0,1.93,0,2.87c0.39,0.22,0.75,0.15,1.1,0.15c3.4,0.01,6.81,0,10.21,0
		c0.85,0,1.7,0,2.55,0c0.26,0,0.52,0,0.73,0c0.28,0.35,0.2,0.69,0.21,1.01c0.01,1.11,0,2.22,0.01,3.34c0,0.32-0.06,0.65,0.13,1
		c0.9,0.21,1.86-0.02,2.84,0.15c0.2,0.93,0.04,1.86,0.1,2.84c-0.25,0.05-0.43,0.11-0.61,0.11c-0.56,0.01-1.11,0-1.67,0.01
		c-0.22,0-0.44,0.04-0.63,0.06c-0.24,0.34-0.16,0.68-0.16,1c-0.01,1.11,0,2.22-0.01,3.34c0,0.32,0.06,0.66-0.15,0.99
		c-0.96,0.09-1.94,0.03-2.92,0.04c-0.95,0.01-1.9,0-2.85,0c-0.98,0-1.96,0-2.94,0c-0.95,0-1.9,0-2.85,0c-0.98,0-1.96,0-2.97,0
		c-0.2,0.75-0.15,1.45-0.06,2.15c0.41,0.2,0.81,0.13,1.19,0.13c5.1,0.01,10.21,0,15.31,0c0.39,0,0.78,0.02,1.2,0.03
		c0.19,1,0.06,1.93,0.09,2.82c-0.3,0.29-0.61,0.19-0.89,0.2c-2.45,0.01-4.91,0-7.36,0c-2.81,0-5.63,0-8.44,0
		c-0.35,0-0.71-0.06-1.11,0.09c-0.02,0.2-0.05,0.38-0.05,0.57c0,0.52,0.01,1.04,0.02,1.57c0.39,0.18,0.76,0.12,1.11,0.12
		c4.16,0,8.31,0,12.47,0c1.08,0,2.16,0,3.24,0c0.29,0,0.58,0,0.89,0c0.24,0.51,0.13,1.01,0.14,1.48c0,0.48,0.08,0.98-0.07,1.45
		c-0.39,0.19-0.79,0.11-1.17,0.11c-5.1,0.01-10.21,0-15.31,0.01c-0.39,0-0.78-0.05-1.21,0.09c-0.16,0.77-0.11,1.54-0.03,2.28
		c0.34,0.24,0.68,0.16,1,0.16c2.06,0.01,4.12,0,6.18,0c3.17,0,6.35,0,9.52,0c0.35,0,0.71-0.06,1.04,0.07
		c0.18,0.76,0.19,1.92,0.03,2.9c-0.16,0.02-0.35,0.06-0.53,0.07c-0.23,0.01-0.46,0-0.69,0c-12.73,0-25.45,0-38.18,0
		c-0.36,0-0.72,0-1.14,0c-2.34-2.34-4.7-4.69-7.1-7.08c-0.84,0.81-1.61,1.6-2.4,2.39c-0.76,0.76-1.52,1.53-2.29,2.29
		c-0.79,0.77-1.53,1.6-2.39,2.34c-0.76-0.64-1.41-1.32-2.03-2.01c0.03-0.37,0.31-0.53,0.51-0.73c1.89-1.9,3.79-3.8,5.69-5.7
		c0.23-0.23,0.44-0.47,0.69-0.74c-0.35-0.48-0.78-0.83-1.16-1.22c-0.39-0.4-0.79-0.79-1.18-1.18c-0.39-0.39-0.79-0.79-1.18-1.18
		c-0.39-0.39-0.79-0.79-1.18-1.18c-0.39-0.39-0.79-0.79-1.18-1.18c-0.39-0.39-0.78-0.79-1.15-1.17c0-0.99,0-1.93,0-2.93
		c0.2-0.04,0.38-0.11,0.57-0.12c1.05-0.01,2.09-0.01,3.14-0.01c0.33,0,0.65,0,1.02,0c2.51-2.5,5.01-5.01,7.62-7.61
		c-0.6-0.16-1.06-0.09-1.5-0.1c-0.46-0.01-0.92,0-1.37,0c-0.43,0-0.85,0-1.28,0c-0.46,0-0.92,0-1.37,0c-0.46,0-0.92,0-1.37,0
		c-0.46,0-0.92,0-1.37,0c-0.43,0-0.85,0-1.28,0c-0.46,0-0.92,0.01-1.37,0c-0.45-0.01-0.91,0.04-1.33-0.06
		c-0.16-0.78-0.17-1.88-0.05-2.87c0.21-0.23,0.48-0.15,0.74-0.15c1.93-0.01,3.86,0,5.79,0c3.01,0,6.02,0,9.03,0
		c0.35,0,0.71,0.01,1.08,0.02c0.19,0.53,0.1,1.02,0.11,1.5c0.02,0.49,0,0.98,0,1.52c-2.5,2.5-5.02,5.02-7.51,7.52
		c0.14,0.3,0.36,0.22,0.54,0.22c1.96,0.01,3.93,0,5.89,0.01c0.32,0,0.64,0.03,1.01,0.04c0.03,0.24,0.07,0.43,0.07,0.61
		c0.01,1.11-0.02,2.23,0.01,3.34c0.02,0.53-0.14,0.92-0.53,1.29c-1.38,1.35-2.74,2.72-4.1,4.09c-0.23,0.23-0.45,0.47-0.71,0.74
		c0.13,0.17,0.23,0.34,0.36,0.47c1.75,1.76,3.52,3.51,5.26,5.28c0.35,0.36,0.71,0.5,1.21,0.5c5.63-0.01,11.26-0.01,16.88-0.01
		c0.23,0,0.45-0.03,0.72-0.05c0.23-0.78,0.1-1.55,0.09-2.36c-0.23-0.04-0.41-0.1-0.6-0.11c-0.29-0.02-0.59-0.01-0.88-0.01
		c-4.94,0-9.88,0-14.82,0c-0.39,0-0.78,0.06-1.21-0.11c-0.12-0.93-0.08-1.86-0.02-2.82c0.36-0.19,0.73-0.12,1.08-0.12
		c3.4-0.01,6.81,0,10.21,0c1.73,0,3.47,0,5.2,0c0.32,0,0.64-0.03,0.97-0.04c0.17-0.4,0.1-0.76,0.1-1.11
		c0.01-0.35-0.02-0.71-0.03-1.08c-0.38-0.19-0.74-0.12-1.09-0.12c-3.53-0.01-7.07,0-10.6,0c-1.6,0-3.21,0-4.81,0
		c-0.32,0-0.64-0.03-1-0.04c-0.13-0.99-0.06-1.93-0.06-2.83c0.42-0.26,0.82-0.17,1.2-0.17c4.22-0.01,8.44,0,12.66,0
		c0.95,0,1.9,0,2.85,0c0.25,0,0.51-0.04,0.79-0.07c0.17-0.72,0.06-1.39,0.07-2.08c-0.39-0.18-0.75-0.12-1.1-0.12
		c-4.32,0-8.64,0-12.96,0c-0.35,0-0.71,0.04-1.12-0.09c-0.1-0.95-0.04-1.89-0.04-2.77c0.29-0.3,0.6-0.21,0.88-0.21
		c2.13-0.01,4.25,0,6.38,0c2.29,0,4.58,0,6.87,0c0.32,0,0.64-0.02,1-0.03c0.17-0.75,0.11-1.46,0.06-2.14
		c-0.31-0.27-0.65-0.17-0.97-0.17c-2.45-0.01-4.91,0-7.36,0c-1.93,0-3.86,0-5.79,0c-0.32,0-0.64-0.02-1.01-0.04
		c-0.13-0.99-0.09-1.92-0.03-2.89c1.05-0.17,2.06-0.06,3.06-0.08c0.98-0.02,1.96,0,2.94,0c1.01,0,2.03,0,3.04,0
		c0.98,0,1.96,0,2.94,0c1.01,0,2.02,0,3.01,0c0.25-0.66,0.27-1.32,0.08-2.29c-0.99-0.14-2-0.04-3-0.06c-0.98-0.02-1.96,0-2.94,0
		c-1.01,0-2.03,0-3.04,0c-0.98,0-1.96,0-2.94,0c-1.01,0-2.02,0-3.03,0c-0.26-0.52-0.14-1.02-0.15-1.49
		c-0.01-0.48-0.04-0.97,0.04-1.46c0.37-0.19,0.74-0.12,1.09-0.12c4.32-0.01,8.64,0,12.96-0.01c0.35,0,0.71,0.06,1.1-0.1
		c0.17-0.97-0.04-1.95,0.12-2.9C299.91,97.01,301.07,97,302.15,97.17z M313.86,105.54c0.02-0.8,0.12-1.51-0.06-2.22
		c-0.17-0.02-0.3-0.05-0.43-0.05c-3.66,0.01-7.31,0.02-10.97,0.03c-0.03,0-0.07,0.01-0.09,0.03c-0.03,0.01-0.05,0.04-0.14,0.12
		c-0.02,0.65-0.07,1.35,0.02,2.04c0.15,0.05,0.24,0.11,0.33,0.11c3.62,0.01,7.25,0.01,10.87,0.01
		C313.53,105.61,313.65,105.58,313.86,105.54z M302.18,108.77c0.01,0.71-0.15,1.44,0.09,2.17c0.17,0.02,0.3,0.05,0.43,0.05
		c3.56,0,7.12,0,10.68,0c0.15,0,0.3-0.05,0.5-0.08c0-0.75,0.06-1.45-0.03-2.15c-0.16-0.05-0.25-0.1-0.34-0.1c-3.66,0-7.31,0-10.97,0
		C302.45,108.65,302.36,108.71,302.18,108.77z M272.34,118.89c0.1-0.06,0.17-0.09,0.21-0.13c1.44-1.43,2.87-2.87,4.3-4.3
		c0.08-0.08,0.1-0.2,0.19-0.38c-2.91,0-5.72,0-8.53,0c-0.23,0-0.46,0.01-0.68,0.02c-0.03,0-0.07,0.01-0.09,0.03
		c-0.02,0.02-0.03,0.06-0.04,0.09C268.14,114.82,271.51,118.21,272.34,118.89z"/>
	<path class="st0" d="M326.11,116.79c-0.02-0.15-0.06-0.27-0.06-0.4c-0.01-0.78,0-1.56,0-2.3c0.32-0.32,0.67-0.22,0.98-0.22
		c2.81-0.01,5.63,0,8.44,0c0.46,0,0.92,0,1.37,0c0.16,0,0.31-0.03,0.45-0.04c0.17-0.74,0.2-3.35,0.06-4.55
		c-0.28-0.19-0.62-0.11-0.93-0.11c-3.11-0.01-6.22,0-9.33,0c-0.36,0-0.72,0-1.05,0c-0.24-0.63-0.28-1.73-0.11-2.98
		c0.55-0.24,1.19,0.02,1.84-0.2c-0.27-0.45-0.64-0.71-0.94-1.04c-0.29-0.31-0.59-0.6-0.92-0.93c0.17-0.22,0.3-0.4,0.45-0.56
		c0.97-0.98,1.95-1.94,2.91-2.92c0.8-0.82,0.67-0.48,0.69-1.7c0.01-0.55-0.05-1.1,0.06-1.7c0.96-0.17,1.9-0.05,2.89-0.08
		c0.07,0.31,0.13,0.59,0.2,0.89c0.07,0.02,0.16,0.07,0.25,0.08c0.33,0.01,0.65,0.02,0.98,0.02c6.09,0,12.17,0,18.26,0
		c0.36,0,0.71,0,1.07,0c0.29,0.5,0.15,1,0.17,1.48c0.02,0.49,0.03,0.97-0.03,1.46c-0.37,0.23-0.74,0.15-1.08,0.15
		c-3.21,0.01-6.41,0-9.62,0c-0.36,0-0.72,0-1.04,0c-0.15,0.24,0.01,0.35,0.11,0.45c0.6,0.61,1.2,1.2,1.8,1.81
		c0.16,0.16,0.3,0.33,0.49,0.54c-0.63,0.71-1.31,1.3-1.96,2.03c0.31,0.18,0.57,0.13,0.82,0.13c2.78,0,5.56,0,8.34,0
		c0.36,0,0.71,0,1.08,0c0.23,0.52,0.13,1.02,0.14,1.49c0.01,0.48,0.06,0.98-0.06,1.47c-0.35,0.2-0.72,0.11-1.06,0.11
		c-3.37,0.01-6.74,0-10.11,0.01c-0.35,0-0.7,0.02-1.04,0.04c-0.15,0.82-0.16,3.62-0.03,4.58c0.17,0.03,0.36,0.08,0.54,0.08
		c4.29,0,8.57,0,12.86,0.01c0.43,0,0.74-0.13,1.04-0.43c0.92-0.93,1.86-1.84,2.81-2.77c0-1.5,0-2.97,0-4.41
		c0.37-0.29,0.75-0.19,1.09-0.19c3.37-0.01,6.74,0,10.11-0.01c0.31,0,0.63-0.03,1.08-0.05c-0.18-0.23-0.27-0.35-0.38-0.46
		c-1.34-1.34-2.69-2.68-4.02-4.03c-0.3-0.3-0.61-0.44-1.03-0.43c-1.24,0.02-2.49,0.01-3.76,0.01c-0.88,0.78-1.68,1.64-2.51,2.46
		c-0.83,0.82-1.65,1.66-2.53,2.52c-0.74-0.7-1.41-1.36-2.08-2.1c0.15-0.19,0.26-0.38,0.41-0.53c0.97-0.98,1.94-1.94,2.91-2.92
		c0.23-0.23,0.45-0.47,0.72-0.75c0-0.85,0-1.72,0-2.58c0.7-0.21,2-0.23,3-0.06c0.04,0.23,0.07,0.48,0.12,0.75
		c0.08,0.03,0.16,0.09,0.25,0.1c0.33,0.02,0.65,0.02,0.98,0.02c6.41,0,12.83,0,19.24,0c0.39,0,0.78,0,1.18,0
		c0.25,0.51,0.13,1.01,0.15,1.48c0.02,0.49,0,0.97-0.01,1.42c-0.39,0.27-0.76,0.17-1.11,0.17c-3.6,0.01-7.2,0-10.8,0.01
		c-0.32,0-0.64,0.02-1.03,0.03c0.1,0.37,0.36,0.52,0.54,0.73c0.22,0.24,0.46,0.46,0.69,0.7c0.21,0.21,0.42,0.41,0.62,0.63
		c0.2,0.21,0.4,0.42,0.64,0.68c-0.52,0.77-1.3,1.29-1.85,2.01c0.11,0.31,0.38,0.19,0.58,0.19c2.52,0.01,5.04,0,7.56,0.01
		c0.32,0,0.64,0.02,0.92,0.03c0.24,0.35,0.17,0.69,0.17,1.01c0.01,1.87,0,3.73,0.01,5.6c0,0.32,0.03,0.64,0.05,1.01
		c0.98,0.15,1.93-0.01,2.84,0.11c0.22,0.69,0.23,2.03,0.05,2.9c-0.73,0.13-4.76,0.16-5.92,0.03c-0.03-0.23-0.08-0.48-0.08-0.73
		c-0.01-1.93,0-3.86-0.01-5.79c0-0.32-0.02-0.64-0.03-0.9c-0.07-0.08-0.09-0.11-0.12-0.13c-0.03-0.02-0.06-0.03-0.09-0.03
		c-2.58-0.01-5.17-0.02-7.75-0.03c-0.1,0-0.19,0.02-0.29,0.04c-0.02,0-0.03,0.05-0.08,0.13c0.21,0.33,0.54,0.59,0.83,0.89
		c0.27,0.28,0.55,0.56,0.83,0.83c0.3,0.3,0.6,0.6,0.9,0.9c0.3,0.3,0.6,0.6,0.9,0.9c0.28,0.28,0.56,0.55,0.83,0.83
		c0.3,0.3,0.59,0.6,0.93,0.94c-0.61,0.81-1.36,1.43-2.08,2.17c-0.28-0.26-0.52-0.47-0.75-0.7c-2.13-2.13-4.27-4.25-6.38-6.39
		c-0.4-0.41-0.8-0.6-1.37-0.57c-0.62,0.04-1.24,0.01-1.9,0.01c-0.04,0.22-0.1,0.4-0.1,0.59c-0.01,0.69,0,1.37,0,2.11
		c-1.68,1.68-3.36,3.37-5.01,5.01c0,0.73,0,1.38,0,2.09c0.2,0.05,0.37,0.12,0.56,0.13c0.33,0.02,0.65,0.01,0.98,0.01
		c8.02,0,16.03,0,24.05,0c0.39,0,0.78-0.05,1.15,0.08c0.16,0.71,0.18,1.82,0.05,2.89c-0.2,0.03-0.42,0.08-0.64,0.08
		c-1.41,0.01-2.81,0-4.22,0.01c-0.29,0-0.57,0.02-0.86,0.03c-0.08,0.33,0.16,0.44,0.31,0.59c1.55,1.56,3.1,3.1,4.65,4.65
		c0.23,0.23,0.45,0.47,0.67,0.69c-0.27,0.58-1.06,1.41-2.04,2.17c-0.2-0.18-0.43-0.35-0.63-0.55c-2.22-2.22-4.44-4.44-6.67-6.66
		c-0.09-0.09-0.2-0.18-0.28-0.28c-0.39-0.51-0.89-0.65-1.53-0.65c-4.84,0.02-9.69,0.01-14.53,0.01c-0.29,0-0.58,0-0.82,0
		c-0.3,0.3-0.22,0.61-0.22,0.89c-0.01,2.09,0,4.19-0.01,6.28c0,0.32-0.03,0.64-0.04,0.94c-0.8,0.17-1.95,0.18-2.92,0.02
		c-0.02-0.27-0.06-0.55-0.06-0.84c-0.01-2.06,0-4.12,0-6.18c0-0.32-0.02-0.64-0.03-0.96c-0.33-0.24-0.67-0.15-0.98-0.16
		c-2.78-0.01-5.56,0-8.34,0c-2.03,0-4.06-0.01-6.09,0c-1.39,0.01-0.98-0.18-1.96,0.79c-2.23,2.21-4.44,4.44-6.67,6.66
		c-0.23,0.23-0.47,0.45-0.69,0.67c-0.62-0.36-1.52-1.25-2.13-2.08c0.29-0.45,0.74-0.79,1.11-1.19c0.38-0.4,0.78-0.79,1.18-1.18
		c0.37-0.37,0.74-0.74,1.11-1.11c0.39-0.39,0.79-0.79,1.18-1.18c0.39-0.39,0.78-0.78,1.15-1.15c-0.08-0.28-0.27-0.23-0.42-0.23
		c-1.44,0-2.88,0-4.32,0c-0.32,0-0.65,0-0.95,0c-0.22-0.66-0.25-1.38-0.13-2.91c0.16-0.04,0.33-0.12,0.51-0.13
		c0.29-0.02,0.59-0.01,0.88-0.01c8.08,0,16.16,0,24.25,0c0.39,0,0.78-0.01,1.18-0.02c0.27-0.72,0.1-1.38,0.13-2.09
		c-0.26-0.04-0.45-0.08-0.63-0.09c-0.29-0.01-0.59-0.01-0.88-0.01c-8.02,0-16.03,0-24.05,0
		C326.91,116.89,326.51,116.94,326.11,116.79z M342.28,105.98c-0.43-0.43-0.74-0.75-1.06-1.07c-1.13-1.13-2.26-2.26-3.39-3.39
		c-0.21-0.21-0.41-0.41-0.74-0.41c-1.37,0.01-2.74,0-3.92,0c-1.69,1.65-3.25,3.17-4.82,4.7c-0.02,0.02-0.04,0.06-0.04,0.08
		c0,0.03,0.02,0.06,0.03,0.09C329.1,106.11,341.2,106.12,342.28,105.98z"/>
	<path class="st0" d="M268.42,72.11c1.61,0,3.18,0.01,4.75,0.01c1.57,0,3.14,0,4.71,0c1.54,0,3.08,0,4.61,0c1.57,0,3.13,0,4.67,0
		c0.26,0.36,0.17,0.7,0.17,1.01c0.01,2.94,0,5.89,0,8.83c0,2.23,0,4.45,0,6.68c0,0.32,0,0.64,0,0.95c-0.72,0.21-1.53,0.24-2.96,0.11
		c-1.17-1.04-4.69-4.61-5.16-5.22c0.41-0.63,1.34-1.57,2.07-2.08c0.99,0.82,1.81,1.84,2.77,2.65c0.24-0.05,0.23-0.2,0.23-0.32
		c0-3.01,0-6.02,0-9.03c0-0.13-0.03-0.25-0.06-0.43c-0.23-0.03-0.45-0.08-0.67-0.08c-4.81,0-9.62,0-14.43,0
		c-0.22,0-0.45,0.04-0.65,0.05c-0.22,0.34-0.14,0.67-0.14,0.99c-0.01,2.55-0.02,5.1,0.01,7.66c0.01,0.61-0.14,1.14-0.43,1.68
		c-0.63,1.15-1.22,2.31-1.83,3.47c-0.1,0.2-0.23,0.39-0.38,0.63c-0.93-0.36-1.75-0.88-2.63-1.34c0.12-0.27,0.19-0.48,0.3-0.68
		c0.48-0.93,0.94-1.87,1.46-2.78c0.35-0.62,0.5-1.24,0.49-1.96c-0.02-6.38-0.01-12.76-0.01-19.14c0-0.39,0.01-0.77,0.02-1.2
		c0.25-0.04,0.43-0.08,0.62-0.09c0.29-0.01,0.59,0,0.88,0c8.44,0,16.88,0,25.33,0c0.39,0,0.78,0.04,1.22-0.07
		c0.08-0.66,0.03-1.31,0.04-1.96c0.01-0.65,0-1.31,0-1.96c0-0.65,0.01-1.3,0.02-2.01c0.99-0.15,1.93-0.05,2.81-0.07
		c0.27,0.26,0.22,0.53,0.22,0.78c0.01,1.41,0,2.81,0.01,4.22c0,0.32,0.03,0.64,0.04,0.98c0.17,0.03,0.3,0.08,0.42,0.08
		c3.86,0,7.71,0,11.54,0c0.11-0.26-0.05-0.36-0.16-0.47c-0.88-0.88-1.76-1.76-2.63-2.64c-0.23-0.23-0.45-0.47-0.72-0.75
		c0.7-0.73,1.35-1.44,2.09-2.05c0.7,0.52,4.62,4.44,5.17,5.17c-0.14,0.19-0.28,0.39-0.43,0.59c0.08,0.07,0.12,0.14,0.17,0.14
		c1.31,0.01,2.62,0.02,3.92,0.03c1.05,0,2.09,0,3.14,0c0.26,0,0.51,0.02,0.75,0.03c0.2,0.73,0.22,2.04,0.05,2.96
		c-0.33,0.15-0.69,0.08-1.04,0.08c-6.35,0.01-12.7,0-19.04,0c-0.36,0-0.72,0-1.08,0c-0.09,0.37,0.2,0.5,0.36,0.66
		c2.61,2.67,5.22,5.33,7.84,7.99c0.46,0.47,0.92,0.94,1.38,1.4c0.13,0.13,0.28,0.25,0.47,0.42c0.56-0.51,1.05-1.03,1.56-1.53
		c0.49-0.48,0.97-0.97,1.46-1.46c0.51-0.51,1.02-1.02,1.53-1.53c0.51-0.51,1.02-1.02,1.53-1.53c0.49-0.49,0.97-0.97,1.46-1.46
		c0.51-0.5,1.02-1,1.55-1.52c0.79,0.64,1.4,1.36,2.07,2c-0.04,0.41-0.36,0.58-0.58,0.8c-2.54,2.55-5.09,5.09-7.63,7.64
		c-0.25,0.25-0.5,0.51-0.8,0.82c3.03,3.09,6.03,6.14,9.02,9.19c-0.28,0.57-0.97,1.3-2.02,2.14c-0.36-0.1-0.56-0.42-0.8-0.66
		c-2.53-2.56-5.05-5.13-7.57-7.7c-0.25-0.25-0.51-0.49-0.81-0.78c-0.81,0.8-1.57,1.56-2.33,2.32c-0.79,0.79-1.57,1.57-2.36,2.36
		c-0.76,0.76-1.52,1.53-2.29,2.29c-0.77,0.75-1.48,1.55-2.36,2.29c-0.69-0.69-1.36-1.35-2-1.99c0.05-0.44,0.36-0.6,0.58-0.83
		c2.63-2.64,5.27-5.28,7.91-7.92c0.23-0.23,0.44-0.46,0.7-0.75c-4.17-4.24-8.29-8.44-12.39-12.62c-8.59,0-17.12,0-25.69,0
		c-0.04,0.14-0.11,0.26-0.11,0.38c-0.01,1.9-0.01,3.8,0,5.69C268.33,71.78,268.37,71.87,268.42,72.11z"/>
	<path class="st0" d="M349.94,65.81c-0.76-0.09-1.3-0.05-1.85-0.06c-0.59-0.01-1.18,0-1.77,0c-0.56,0-1.11,0-1.67,0
		c-0.56,0-1.11,0-1.67,0c-0.59,0-1.18,0-1.77,0c-0.56,0-1.11,0-1.67,0c-0.59,0-1.18,0-1.77,0c-0.56,0-1.11,0-1.67,0
		c-0.56,0-1.11,0-1.67,0c-0.59,0-1.18,0-1.77,0c-0.56,0-1.11,0-1.67,0c-0.56,0-1.11,0-1.67,0c-0.59,0-1.18,0.01-1.77,0
		c-0.55-0.01-1.1,0.04-1.7-0.06c-0.07-0.99-0.04-1.92-0.02-2.81c0.37-0.25,0.7-0.18,1.02-0.18c1.8-0.01,3.6,0,5.4,0
		c6.38,0,12.76,0,19.14,0c0.39,0,0.78,0,1.22,0c0.04-0.27,0.09-0.49,0.1-0.7c0.01-0.78,0-1.57,0.01-2.36c0-0.26,0.03-0.51,0.04-0.79
		c0.49-0.23,0.98-0.12,1.46-0.13c0.48-0.01,0.97-0.06,1.5,0.07c0.21,1.27-0.04,2.54,0.14,3.82c0.37,0.13,0.73,0.09,1.08,0.09
		c2.94,0,5.89,0,8.83,0c5.23,0,10.47,0,15.7,0c0.39,0,0.78-0.06,1.15,0.09c0.16,0.68,0.18,1.76,0.06,2.87
		c-0.17,0.03-0.35,0.08-0.54,0.09c-0.29,0.02-0.59,0.01-0.88,0.01c-7.1,0-14.2,0-21.3,0c-0.35,0-0.71,0-1.03,0
		c-0.15,0.26,0.01,0.36,0.11,0.47c0.2,0.22,0.41,0.42,0.62,0.63c7.38,7.38,14.76,14.76,22.14,22.14c0.27,0.27,0.54,0.55,0.84,0.86
		c-0.59,0.81-1.33,1.4-2.01,2.12c-0.18-0.12-0.35-0.21-0.49-0.34c-0.22-0.2-0.42-0.41-0.63-0.62c-8.12-8.12-16.24-16.24-24.36-24.35
		c-0.27-0.27-0.51-0.58-0.9-0.8c-0.96,0.82-1.79,1.74-2.67,2.6c-0.86,0.85-1.71,1.71-2.57,2.57c-0.88,0.88-1.76,1.76-2.64,2.64
		c-0.88,0.88-1.76,1.76-2.64,2.64c-0.88,0.88-1.76,1.76-2.64,2.64c-0.86,0.86-1.71,1.71-2.57,2.57c-0.88,0.88-1.76,1.76-2.64,2.64
		s-1.76,1.76-2.64,2.64c-0.86,0.86-1.71,1.71-2.57,2.57c-0.88,0.88-1.75,1.75-2.62,2.62c-0.68-0.45-1.64-1.41-2.13-2.12
		c0.7-0.85,1.53-1.58,2.3-2.37c0.8-0.82,1.62-1.62,2.43-2.43c0.79-0.79,1.57-1.57,2.36-2.36c0.81-0.81,1.62-1.62,2.43-2.43
		c0.79-0.79,1.57-1.57,2.36-2.36s1.57-1.57,2.36-2.36c0.81-0.81,1.62-1.62,2.43-2.43c0.79-0.79,1.57-1.57,2.36-2.36
		c0.81-0.81,1.62-1.62,2.43-2.43C348.22,67.54,349,66.75,349.94,65.81z"/>
	<line class="st0" x1="401.18" y1="55.65" x2="401.18" y2="131.3"/>
	<path class="st0" d="M419.58,64.25l-0.27-0.87h20.92V57l10.24,0.98c-0.11,0.71-0.55,1.15-2.07,1.36v4.03h10.51l3.92-5.29l7.24,5.4
		c-0.44,0.6-1.14,0.76-2.67,0.76h-19.01v6.76h7.52l3.92-5.23l7.19,5.34c-0.44,0.6-1.2,0.76-2.67,0.76H422.9l-0.22-0.87h17.54v-6.76
		H419.58z M460.43,77.67h-31.92c0.05,0.44,0.05,0.87,0.05,1.31c0,3.54-1.8,6.54-5.17,6.54c-2.12,0-4.09-1.15-4.09-3.44
		c0-1.69,1.31-3.05,2.89-3.76c1.91-0.76,4.47-2.73,4.74-4.85h0.65c0.38,1.2,0.65,2.29,0.82,3.33h31.65l3.81-3.76l6.54,6.22
		c-0.44,0.44-0.98,0.6-2.12,0.65c-2.45,1.69-6.54,4.14-9.31,5.45l-0.44-0.27c0.22-0.71,0.49-1.58,0.71-2.51h-30.45l-0.27-0.87h22.55
		l3.54-3.65l5.07,2.84L460.43,77.67z M458.69,105.42l4.14-5.73l7.57,5.83c-0.44,0.6-1.14,0.76-2.72,0.76h-47.55l-0.27-0.87h16.01
		c-0.76-0.33-1.47-0.93-2.02-1.85c0.16-0.71,0.22-1.47,0.22-2.24c0-1.2-0.16-2.4-0.54-3.38c-2.18,1.2-4.14,1.2-5.99,1.2V84.1
		l8.06,3.05h17.48l2.78-3.6l7.57,5.18c-0.27,0.38-0.93,0.87-1.96,1.09v6.76c-0.05,0.38-3.65,1.47-6.05,1.58l4.74,1.31
		c-0.22,0.65-0.76,0.98-2.12,0.87c-2.18,1.58-5.61,3.54-8.82,5.07H458.69z M435.16,96.04c0,0.6,0,0.6-0.22,0.82
		c5.56,1.25,7.46,3.38,7.46,5.18c0,1.47-1.2,2.78-2.72,3.38h8.17c0.71-2.62,1.36-6.33,1.69-8.89l4.09,1.15v-1.64H435.16z
		 M453.62,88.03h-18.46v7.14h18.46V88.03z"/>
	<path class="st0" d="M473.84,82.96c0-13.96,11.33-25.3,25.27-25.3c13.94,0,25.27,11.34,25.27,25.3s-11.33,25.3-25.27,25.3
		C485.06,108.26,473.84,96.81,473.84,82.96z M475.04,82.96c0,13.31,10.79,24.1,24.08,24.1s24.07-10.8,24.07-24.1
		c0-13.3-10.78-24.1-24.07-24.1C485.71,58.85,475.04,69.76,475.04,82.96z"/>
	<path class="st0" d="M575.27,69.87c-0.38,0.71-0.93,0.93-2.34,1.09c-0.98,4.74-2.29,9.27-4.14,13.58c2.12,6.65,5.5,11.67,11,13.8
		l0.11,0.71c-3.54,2.45-5.07,5.89-5.23,9.92c-4.14-3.54-6.21-11.89-7.41-21.27c-4.74,9.11-12.47,16.63-25.76,21.27l-0.27-0.6
		c14.71-8.45,21.08-23.34,23.37-39.7h-5.28c-2.67,6.65-6.65,13.52-12.91,18.38l-0.44-0.49c1.31-2.29,2.51-4.85,3.43-7.52h-0.05
		c-0.44,0.49-1.2,0.6-2.51,0.6h-5.17v13.96c2.61-0.38,5.39-0.82,8.17-1.31l0.05,0.49c-3.49,2.51-9.15,6.05-17.76,10.52
		c-0.33,0.71-0.93,1.31-1.63,1.47l-3.38-9.16c1.52-0.16,3.92-0.44,6.92-0.87v-15.1h-6.05l-0.22-0.87h6.26V63.71h-6.59l-0.22-0.87
		h12.36l3.76-5.45l6.86,5.56c-0.38,0.6-1.25,0.76-2.67,0.76h-5.88v14.18l2.45-3.98l5.28,4.91c2.56-7.42,3.76-15.87,4.14-22.19
		l10.51,2.94c-0.16,0.6-0.65,1.15-2.02,1.2c-0.65,2.24-1.42,4.58-2.34,7.03h4.25l4.19-4.36L575.27,69.87z"/>
	<path class="st0" d="M628.28,72.32l6.37,5.62c-0.38,0.65-0.87,0.82-2.18,0.98c-1.58,5.94-3.98,11.56-7.68,16.47
		c2.83,2.84,6.05,5.13,9.64,7.09l-0.16,0.6c-3.38,0.27-6.21,2.34-7.79,5.83c-2.67-2.51-4.85-5.13-6.59-8.18
		c-3.65,3.27-8.12,6-13.73,8.13l-0.33-0.65c5.07-3.05,8.99-7.09,11.98-11.67c-1.69-4.2-2.83-9.21-3.6-15.54h-0.05
		c-1.25,10.63-4.58,19.9-13.78,27.16l-0.71-0.71c1.47-2.34,2.67-4.74,3.65-7.2c-0.55,0.33-1.14,0.49-1.74,0.49
		c-1.04,0-2.12-0.49-2.89-1.64c0.05-0.49,0.11-1.04,0.11-1.58c0-2.62-0.65-5.56-1.58-7.69V107c0,0.38-2.18,1.91-5.77,1.91h-1.31
		V92.39c-1.63,5.34-4.09,9.82-7.41,12.49l-0.76-0.44c1.36-3.54,2.23-9.65,2.4-15.38l5.77,1.15v-4.74c-1.31,0.44-2.72,0.93-4.25,1.42
		c-0.38,0.71-1.04,1.15-1.63,1.2l-2.23-7.03h6.64c2.61-5.45,5.28-12.21,6.92-17.12l8.93,3.44c-0.22,0.49-0.65,0.76-1.47,0.76
		c-0.22,0-0.49,0-0.76-0.05c-2.72,3.71-6.92,8.67-11.22,12.98l6.75-0.16c-0.33-1.36-0.82-2.62-1.42-3.6l0.49-0.27
		c6.21,2.02,8.28,4.85,8.28,7.14c0,2.13-1.85,3.82-3.81,3.82c-1.09,0-2.18-0.49-3.05-1.69c0.05-0.38,0.05-0.76,0.05-1.2
		c0-0.82-0.05-1.69-0.22-2.51l-0.93,0.33v6.38l0.33-0.16c4.58,1.96,6.7,4.2,7.35,6.27c2.29-8.4,2.51-17.39,2.51-26.99v-6.71h-4.47
		l-0.27-0.87h16.78l2.89-3.49l6.92,5.18c-0.38,0.49-1.14,0.93-2.29,1.09c-0.55,3.11-1.58,8.23-2.51,12.54h0.11L628.28,72.32z
		 M582.52,66.43c1.91,0.27,3.49,0.71,4.74,1.2c0.76-2.94,1.52-7.03,2.12-10.63l9.26,3c-0.22,0.71-0.82,1.09-2.23,1.09
		c-2.23,2.78-4.79,5.45-7.3,7.47c1.8,1.15,2.45,2.51,2.45,3.76c0,1.91-1.69,3.54-3.54,3.54c-0.93,0-1.85-0.38-2.67-1.31
		c-0.22-2.67-1.52-5.89-3.21-7.8L582.52,66.43z M623.81,78.92c-0.98,0.49-2.18,0.76-3.6,0.76c-1.03,0-2.23-0.16-3.54-0.44
		c1.25-5.51,2.56-12.87,3.27-17.56h-4.9c-0.05,4.09-0.11,8.07-0.27,11.89c1.2,7.2,3.32,12.71,6.21,17.07
		c1.96-4.25,3.27-8.89,4.09-13.63h-0.82L623.81,78.92z"/>
	<path class="st0" d="M688.58,83.94c-0.38,0.65-1.09,0.76-2.62,0.76h-9.53v6.54l3-3.76l6.7,4.63c-0.38,0.65-1.09,0.76-2.56,0.76
		h-17.32v6.32h10.68l3.81-4.8l7.03,4.91c-0.38,0.65-1.09,0.76-2.62,0.76h-18.9v6.65c-0.05,0.49-2.4,2.13-6.43,2.13h-1.47v-8.78
		H637.6l-0.27-0.87h21.03v-6.32h-17.27l-0.27-0.87h7.63V84.7h-11.55l-0.27-0.87h11.82v-5.4c-1.96,0.93-3.49,0.93-5.39,0.93V58.09
		l8.22,3.11h22.22l2.89-3.76l7.68,5.34c-0.33,0.44-0.98,0.98-2.12,1.2v12.98c-0.05,0.38-3.05,1.36-5.5,1.64v5.23h1.58l3.7-4.64
		L688.58,83.94z M658.35,62.07h-7.57v6.22h7.57V62.07z M650.78,69.16v6.49h7.57v-6.49H650.78z M655.52,76.52v7.31h2.83v-7.31H655.52
		z M655.52,92.01h2.83V84.7h-2.83V92.01z M674.04,62.07h-7.79v6.22h7.79V62.07z M666.25,69.16v6.49h7.79v-6.49H666.25z
		 M669.19,76.52h-2.94v7.31h2.94V76.52z M669.19,92.01V84.7h-2.94v7.31H669.19z"/>
	<path class="st0" d="M742.51,92.28c-0.38,0.65-1.09,0.76-2.62,0.76h-17.7c4.68,3.71,13.24,6.16,20.59,6.93l-0.05,0.6
		c-2.62,0.71-4.58,3.05-5.28,6.54c-7.68-2.73-13.02-7.36-16.5-14.07h-0.16v14.12c-0.05,0.38-2.4,1.74-6.43,1.74h-1.47V97.68
		c-5.34,4.31-12.91,7.42-21.46,9.49l-0.33-0.82c7.03-3.27,12.91-8.29,16.29-13.31h-15.52l-0.27-0.87h21.3V85.9H697.8l-0.27-0.87
		h15.36v-5.94h-17.81l-0.27-0.87h13.29c-0.93-0.16-1.85-0.71-2.56-1.69c0.05-0.44,0.11-0.87,0.11-1.31c0-2.07-0.65-4.31-1.8-5.67
		l0.38-0.27c6.59,0.98,8.82,3.27,8.82,5.34c0,1.74-1.58,3.27-3.43,3.6h11.71c0.82-2.67,1.42-6.43,1.69-9.11l9.59,2.34
		c-0.16,0.65-0.71,0.98-2.07,0.93c-1.91,1.91-4.85,4.14-7.84,5.83h6.59l3.7-4.47l6.86,4.58c-0.44,0.65-1.14,0.76-2.61,0.76h-16.45
		v5.94h7.19l3.49-4.25l6.59,4.36c-0.38,0.65-1.14,0.76-2.56,0.76h-14.71v6.27h10.89l3.81-4.69L742.51,92.28z M692.29,69l-0.27-0.87
		h9.97c-0.65-0.22-1.31-0.65-1.91-1.36c0.16-2.73-0.82-5.94-2.67-7.74l0.33-0.33c7.14,0.82,9.48,3.44,9.48,5.73
		c0,1.69-1.25,3.22-2.89,3.71h3.87V57l8.93,0.87c-0.11,0.6-0.49,0.98-1.85,1.15v9.11h3.11V57l9.04,0.87
		c-0.11,0.6-0.54,0.98-1.85,1.15v9.11h1.14c0.93-2.73,1.8-6.65,2.23-9.38l9.37,2.62c-0.16,0.65-0.71,0.93-2.07,0.87
		c-1.96,1.91-5.17,4.2-8.22,5.89h4.08l3.59-4.25l6.76,4.36c-0.38,0.65-1.09,0.76-2.56,0.76H692.29z"/>
	<path class="st0" d="M764.64,64.09l5.77,4.2c-0.38,0.65-1.2,0.76-2.56,0.76h-22.22l-0.22-0.87h16.18L764.64,64.09z M768.61,91.52
		c-0.27,0.38-0.93,0.87-1.91,1.04v12.32c0,0.11-1.8,1.91-7.14,1.91v-4.09h-4.36v3.65c0,0.11-1.09,2.51-6.97,2.51V87.21l7.19,2.84
		h3.59l2.62-3.38L768.61,91.52z M761.59,71.34l5.61,4.09c-0.44,0.65-1.2,0.76-2.56,0.76h-16.07l-0.27-0.87h10.3L761.59,71.34z
		 M758.59,82.47l3-3.98l5.61,4.09c-0.44,0.65-1.2,0.76-2.56,0.76h-16.07l-0.27-0.87H758.59z M767.2,61.36
		c-0.38,0.6-1.2,0.76-2.56,0.76h-15.8l-0.27-0.87h9.81l3.1-4.09L767.2,61.36z M755.21,101.82h4.36V90.92h-4.36V101.82z
		 M788.06,78.49l6.86,6c-0.33,0.6-0.87,0.82-2.18,0.93c-1.69,4.36-4.09,8.29-7.3,11.72c3.76,1.91,8.01,3.22,12.31,4.2l-0.05,0.6
		c-3.27,0.71-5.56,3.22-6.65,6.98c-4.19-1.96-7.73-4.25-10.62-7.36c-4.36,3.16-9.75,5.73-16.34,7.47l-0.22-0.66
		c5.67-2.67,10.08-6.32,13.51-10.69c-2.4-3.65-4.19-8.29-5.34-14.29h-2.78l-0.27-0.87h14.82l4.14-4.03
		c-4.74-0.11-5.12-1.85-5.12-7.42v-8.89h-4.58v3.11c0,4.31-1.09,11.78-10.51,15.76l-0.33-0.49c3.54-4.69,3.76-10.8,3.76-15.27v-6.76
		l8.17,2.78h2.89l2.83-3.76l6.75,4.96c-0.33,0.38-0.98,0.65-1.85,0.82v7.96c0,0.76,0.05,0.82,0.49,0.82h1.85c0.33,0,0.6,0,0.87-0.44
		c0.55-0.82,1.36-3.11,1.85-4.53h0.38l0.16,4.74c1.58,0.71,1.74,1.2,1.74,2.4c0,2.45-1.58,4.2-5.5,4.2H788.06z M772.86,83.39
		c1.58,4.36,4.08,7.69,7.24,10.25c1.85-3.16,3.21-6.6,4.19-10.25H772.86z"/>
	<path class="st0" d="M820.42,64.04l5.77,4.25c-0.38,0.65-1.2,0.76-2.56,0.76h-23.31l-0.22-0.87h17.21L820.42,64.04z M814.7,90.05
		l2.67-3.49l7.19,5.02c-0.33,0.44-1.03,0.93-2.18,1.15v12.21c0,0.05-1.85,1.85-7.14,1.85v-4.09h-5.23v3.65
		c0,0.11-1.09,2.51-6.97,2.51V87.21l7.19,2.84H814.7z M817.54,71.23l5.72,4.2c-0.38,0.6-1.2,0.76-2.56,0.76h-17.32l-0.27-0.87h11.33
		L817.54,71.23z M814.43,82.47l3.1-4.09l5.72,4.2c-0.38,0.6-1.2,0.76-2.56,0.76h-17.32l-0.27-0.87H814.43z M823.04,61.36
		c-0.44,0.6-1.2,0.76-2.56,0.76h-16.83l-0.27-0.87h10.84l3.05-4.09L823.04,61.36z M810.02,101.82h5.23V90.92h-5.23V101.82z
		 M845.64,72l6.37,5.45c-0.44,0.6-1.2,0.76-2.67,0.76h-8.01v27.92c0,0.82-3.38,2.73-6.43,2.73h-1.47V78.21h-9.37l-0.22-0.87h9.59
		V57.11l10.19,0.98c-0.11,0.82-0.54,1.36-2.29,1.58v17.67h0.71L845.64,72z"/>
	<path class="st0" d="M870.71,81.92c2.51-0.44,5.12-0.87,7.68-1.36l0.11,0.55c-1.96,1.36-4.52,2.94-7.79,4.8v20.45
		c0,0.76-3.1,2.51-5.88,2.51h-1.36V89.77l-4.08,2.07c-0.33,0.76-0.93,1.31-1.63,1.47l-3.59-8.89c1.91-0.22,5.28-0.71,9.31-1.31
		V71.89h-2.89c-1.25,3.82-2.89,7.2-4.9,9.71l-0.82-0.38c0.71-3.82,1.03-9.92,1.03-15.76c0-1.42,0-2.89-0.06-4.25l7.63,1.2v-5.29
		l9.37,0.87c-0.11,0.76-0.49,1.25-2.12,1.42v10.8l2.78-4.69l5.88,5.62c-0.44,0.6-1.25,0.76-2.72,0.76h-5.94V81.92z M862.65,63.93
		c-0.49,2.45-1.09,4.85-1.8,7.09h2.61v-7.25L862.65,63.93z M900.39,71.01l6.59,5.67c-0.44,0.6-1.25,0.76-2.72,0.76h-30.39
		l-0.22-0.87h12.2v-9.76h-8.44l-0.22-0.87h8.66v-8.89l9.86,0.93c-0.11,0.76-0.6,1.15-2.12,1.42v6.54h2.07l3.43-5.13l6.16,5.23
		c-0.44,0.6-1.2,0.76-2.67,0.76h-8.99v9.76h3.11L900.39,71.01z M898.16,85.79l3-4.96l5.45,5.07c-0.38,0.6-1.2,0.76-2.61,0.76h-5.88
		v13.31c0,4.8-1.2,8.18-9.7,8.94c0-5.51-2.23-6.76-6.75-7.31v-0.71h7.84c0.65,0,0.87-0.22,0.87-0.82V86.66H874.3l-0.22-0.87h16.29
		v-7.36l9.75,0.65c-0.05,0.65-0.33,1.04-2.02,1.31v5.4H898.16z M875.66,88.03c7.57,1.53,10.08,4.47,10.08,6.98
		c0,2.34-2.18,4.31-4.47,4.31c-1.25,0-2.51-0.55-3.54-1.91c0.22-3.11-0.65-6.82-2.45-9.11L875.66,88.03z"/>
	<path class="st0" d="M951,89.83l6.59,5.18c-0.22,0.33-0.54,0.6-1.14,0.6c-0.27,0-0.54-0.05-0.93-0.16
		c-2.78,0.55-6.65,1.15-10.19,1.53c4.41,2.51,9.97,3.65,15.63,4.36l-0.05,0.6c-2.94,0.87-4.9,3.33-5.72,7.03
		c-5.07-1.85-9.1-4.14-12.2-7.74c-4.14,1.69-10.02,3.71-18.41,6.38c-0.44,0.71-1.09,1.09-1.74,1.2l-3.11-8.4
		c1.58,0,3.98,0,6.92-0.05V89.83h-4.25c-1.52,6.98-5.01,13.85-12.91,18.92l-0.44-0.33c6.05-9.54,6.54-21.65,6.54-32.5V57.87
		l9.15,3.05h23.31l2.83-3.76l7.84,5.4c-0.33,0.44-0.98,0.93-2.12,1.15v7.85c0,0.05-2.23,1.53-8.01,1.53v-1.96h-25v4.8
		c0,1.15,0,2.34-0.05,3.6h5.39v-6.87l8.99,0.87c-0.05,0.55-0.43,0.87-1.58,1.04v4.96h5.67v-6.71l8.93,0.87
		c-0.06,0.55-0.44,0.87-1.63,1.04v4.8h0.05l3.27-4.58l6.05,4.69c-0.38,0.6-1.14,0.76-2.56,0.76h-6.81v8.56h2.18l3.32-4.58l5.99,4.69
		c-0.38,0.6-1.09,0.76-2.56,0.76H951z M923.55,80.39c-0.11,2.78-0.38,5.67-0.93,8.56h6.32v-8.56H923.55z M948.61,61.8h-25v8.45h25
		V61.8z M933.95,89.83v10.36c2.56-0.05,5.23-0.16,8.01-0.22c-1.96-2.67-3.49-5.94-4.58-10.14H933.95z M942.02,80.39h-5.67v8.56h5.67
		V80.39z M938.31,89.83c1.31,2.62,3.21,4.63,5.5,6.22c2.4-1.91,5.28-4.58,6.81-6.22H938.31z"/>
</g>
<path class="st0" d="M44.2,105.05c0-7.4,0-14.8,0-22.19c0.13-0.36,0.33-0.71,0.39-1.08c0.7-4.47,2.14-8.69,4.42-12.59
	c5.3-9.05,12.99-15.02,23.16-17.71c5.12-1.35,10.32-1.5,15.58-1c7.71,0.74,14.53,3.61,20.41,8.6c7.04,5.97,11.38,13.52,12.82,22.69
	c0.07,0.44,0.22,0.86,0.33,1.3c0.43-1.21,0.6-2.41,0.87-3.59c2.27-9.89,7.7-17.59,16.14-23.18c5.75-3.81,12.13-5.69,18.98-6.02
	c4.21-0.21,8.41,0.02,12.52,1c5.84,1.39,11.06,4.04,15.62,7.95c0.53,0.46,0.86,0.39,1.35-0.02c3.99-3.38,7.98-6.75,12.01-10.09
	c0.29-0.24,0.89-0.39,1.21-0.25c4.62,2.03,8.85,4.68,12.58,8.09c8.95,8.21,14.66,18.44,18.65,29.75c1.81,5.13,3.22,10.39,4.08,15.75
	c0.69,4.34,1.31,8.72,1.55,13.11c0.26,4.96,0.15,9.96,0.02,14.93c-0.06,2.54-0.51,5.08-0.79,7.62c-8.48,0-16.95,0-25.43,0
	c-0.01-0.28-0.05-0.57-0.04-0.85c0.53-11.65-0.53-23.14-3.5-34.44c-1.59-6.06-3.71-11.92-6.48-17.54c-0.74-1.51-1.57-2.97-2.36-4.46
	c-0.09,0.03-0.18,0.06-0.27,0.09c0.13,1.03,0.36,2.06,0.38,3.09c0.08,5.87,0.14,11.73,0.13,17.6c0,3.91-0.74,7.73-2.15,11.36
	c-4.55,11.79-12.84,19.83-25.05,23.23c-10.24,2.85-20.47,2.27-29.99-2.83c-11.11-5.95-17.77-15.22-19.64-27.78
	c-0.04-0.25-0.13-0.49-0.19-0.73c-0.09,0-0.19,0-0.28,0c-0.17,1.03-0.29,2.08-0.52,3.1c-1.32,5.88-3.79,11.22-7.62,15.9
	c-4.6,5.61-10.36,9.58-17.23,11.91c-5.2,1.76-10.59,2.15-16.03,1.87c-6.07-0.31-11.79-1.9-17.03-5.02
	c-9.41-5.6-15.38-13.72-17.81-24.41C44.76,107.16,44.47,106.11,44.2,105.05z"/>
</svg>
